<svg data-v-0dd9719b="" version="1.0" xmlns="http://www.w3.org/2000/svg" xmlns:xlink="http://www.w3.org/1999/xlink" width="100%" height="100%" viewBox="0 0 340.000000 250.000000" preserveAspectRatio="xMidYMid meet" color-interpolation-filters="sRGB" style="margin: auto;"> <rect data-v-0dd9719b="" x="0" y="0" width="100%" height="100%" fill="#fff" fill-opacity="1" class="background"></rect> <rect data-v-0dd9719b="" x="0" y="0" width="100%" height="100%" fill="url(#watermark)" fill-opacity="1" class="watermarklayer"></rect> <g data-v-0dd9719b="" fill="#da251d" class="icon-text-wrapper icon-svg-group iconsvg" transform="translate(54.26499938964844,95.01109504699707)"><g class="iconsvg-imagesvg" transform="translate(0,0)"><g><rect fill="#da251d" fill-opacity="0" stroke-width="2" x="0" y="0" width="60" height="59.977808210961946" class="image-rect"></rect> <svg x="0" y="0" width="60" height="59.977808210961946" filtersec="colorsb9341611967" class="image-svg-svg primary" style="overflow: visible;"><svg xmlns="http://www.w3.org/2000/svg" viewBox="-0.0010022380156442523 0 14.738336563110352 14.732953071594238"><g><g fill="#da251d" fill-rule="evenodd"><path d="M12.58 2.15A7.34 7.34 0 0 0 7.72 0v3.61a6.12 6.12 0 0 0 .8 3.08 6.12 6.12 0 0 0 2.27 2.24l3.13 1.8a7.38 7.38 0 0 0-1.34-8.59zM9.28 14.48a7.35 7.35 0 0 0 4.29-3.13l-3.13-1.8a6 6 0 0 0-6.15 0l-3.12 1.8a7.29 7.29 0 0 0 1 1.23 7.37 7.37 0 0 0 7.12 1.9zM.25 5.46a7.35 7.35 0 0 0 .57 5.28l3.13-1.8A6.12 6.12 0 0 0 6.22 6.7 6.12 6.12 0 0 0 7 3.61V0A7.37 7.37 0 0 0 .25 5.46z"></path></g></g></svg></svg> <!----></g></g> <g transform="translate(67,5.592653274536133)"><g data-gra="path-name" fill-rule="" class="tp-name iconsvg-namesvg" transform="translate(0,0)"><g transform="scale(1)"><g><path d="M22.87-26.78L22.87-24.48 39.91-24.48 39.91-21.12 22.87-21.12 22.87-18.87 34.72-18.87 34.72-19.64 38.08-19.64 38.08 2.38Q38.08 4 36.95 5.1 35.83 6.21 34.26 6.21L34.26 6.21 29.75 6.21 29.75 2.85 34.26 2.85Q34.72 2.85 34.72 2.38L34.72 2.38 34.72-15.51 7.78-15.51 7.78 6.21 4.42 6.21 4.42-18.87 19.55-18.87 19.55-21.12 2.68-21.12 2.68-24.48 19.55-24.48 19.55-26.78 22.87-26.78ZM33.07 0.81L22.87 0.81 22.87 6.08 19.55 6.08 19.55 0.81 9.35 0.81 9.35-2.51 19.55-2.51 19.55-6.21 10.63-6.21 10.63-9.56 13.69-9.56 11.43-12.2 13.94-14.37 17.47-10.24 16.66-9.56 24.61-9.56 28.31-14.32 30.94-12.24 28.86-9.56 31.79-9.56 31.79-6.21 22.87-6.21 22.87-2.51 33.07-2.51 33.07 0.81ZM65.75-23.93L82.24-23.93 82.24-20.61 45.26-20.61 45.26-23.93 61.75-23.93 60.52-25.8 63.33-27.63 65.75-23.93ZM78.8-18.7L78.8-10.37Q78.8-8.76 77.67-7.65 76.54-6.55 74.97-6.55L74.97-6.55 65.37-6.55 65.37 2.38Q65.37 4 64.26 5.1 63.16 6.21 61.54 6.21L61.54 6.21 57.12 6.21 57.12 2.85 61.54 2.85Q61.75 2.85 61.9 2.72 62.05 2.59 62.05 2.38L62.05 2.38 62.05-6.55 49.22-6.55 49.22-18.15 75.44-18.15 75.44-18.7 78.8-18.7ZM52.53-9.86L74.97-9.86Q75.18-9.86 75.31-10.01 75.44-10.16 75.44-10.37L75.44-10.37 75.44-14.79 52.53-14.79 52.53-9.86ZM70.34-3.74L72.97-5.82 80.67 3.87 78.07 5.95 70.34-3.74ZM46.75 4.85L45.65 3.57Q45.65 3.57 46.49 2.78 47.34 2 48.58 0.72 49.81-0.55 51.21-2.19 52.62-3.83 53.76-5.61L53.76-5.61 56.57-3.83Q55.34-1.91 53.85-0.15 52.36 1.62 51.04 3 49.73 4.38 48.83 5.21 47.94 6.04 47.86 6.12L47.86 6.12 46.75 4.85ZM109.14-8.84L109.14-8.84 109.14 2.21 124.78 2.21 124.78 5.53 87.72 5.53 87.72 2.21 94.18 2.21 94.18-14.83 97.5-14.83 97.5 2.21 105.78 2.21 105.78-22.4 89.67-22.4 89.67-25.76 122.83-25.76 122.83-22.4 109.14-22.4 109.14-12.2 120.28-12.2 120.28-8.84 109.14-8.84ZM140.97-20.02L140.97-15.94 160.74-15.94 160.74-16.53 164.09-16.53 164.09-10.16 163.75-9.69Q163.67-9.61 163.18-8.99 162.69-8.37 161.73-7.37 160.78-6.38 159.31-5.08 157.84-3.78 155.89-2.38L155.89-2.38 166.13 2.98 164.56 5.95 152.7-0.26Q149.9 1.49 146.28 3.12 142.67 4.76 138.17 6.12L138.17 6.12 137.23 2.93Q140.84 1.83 143.8 0.55 146.75-0.72 149.18-2.08L149.18-2.08 141.4-6.16 142.93-9.14 152.53-4.12Q156.1-6.5 158.1-8.48 160.1-10.46 160.74-11.26L160.74-11.26 160.74-12.62 140.89-12.62Q140.68-10.2 140.02-7.91 139.36-5.61 138.47-3.57 137.57-1.53 136.59 0.17 135.62 1.87 134.79 3.12 133.96 4.38 133.39 5.12 132.81 5.87 132.73 5.95L132.73 5.95 130.13 3.83Q130.13 3.83 130.71 3.1 131.28 2.38 132.11 1.1 132.94-0.17 133.9-1.89 134.85-3.61 135.68-5.65 136.51-7.69 137.06-9.92 137.62-12.16 137.62-14.49L137.62-14.49 137.62-20.02 130.94-20.02 130.94-23.33 137.62-23.33 137.62-26.69 140.97-26.69 140.97-23.33 167.15-23.33 167.15-20.02 140.97-20.02Z" transform="translate(-2.680000066757202, 27.6299991607666)"></path></g> <!----> <!----> <!----> <!----> <!----> <!----> <!----></g></g> <g data-gra="path-slogan" fill-rule="" class="tp-slogan iconsvg-slogansvg" fill="#333" transform="translate(21.345001220703125,40.84000015258789)"><!----> <!----> <g transform="scale(1, 1)"><g transform="scale(1)"><path d="M2.30-8.58L6.61-1.64L6.61-8.58L7.73-8.58L7.73 0L6.42 0L2.06-6.94L2.02-6.94L2.02 0L0.89 0L0.89-8.58L2.30-8.58ZM15.19 0L14.34-2.48L10.88-2.48L9.98 0L8.81 0L12.05-8.58L13.36-8.58L16.45 0L15.19 0ZM12.61-7.31L11.25-3.52L13.92-3.52L12.66-7.31L12.61-7.31ZM18.89-8.58L23.20-1.64L23.20-8.58L24.33-8.58L24.33 0L23.02 0L18.66-6.94L18.61-6.94L18.61 0L17.48 0L17.48-8.58L18.89-8.58ZM25.41-1.92L25.41-2.77L26.48-2.77L26.48-2.16Q26.48-0.75 27.80-0.75L27.80-0.75Q29.16-0.75 29.16-2.25L29.16-2.25L29.16-8.58L30.33-8.58L30.33-2.30Q30.28 0.09 27.84 0.14L27.84 0.14Q25.55 0.09 25.41-1.92L25.41-1.92ZM32.30-8.58L33.47-8.58L33.47 0L32.30 0L32.30-8.58ZM36.84-8.58L41.16-1.64L41.16-8.58L42.28-8.58L42.28 0L40.97 0L36.61-6.94L36.56-6.94L36.56 0L35.44 0L35.44-8.58L36.84-8.58ZM50.48-3.61L47.86-3.61L47.86-4.59L51.61-4.59L51.61 0L50.86 0L50.58-1.08Q49.59 0.09 47.77 0.14L47.77 0.14Q46.03 0.14 45.09-0.75L45.09-0.75Q43.69-2.06 43.73-4.36L43.73-4.36Q44.06-8.63 47.81-8.81L47.81-8.81Q51-8.63 51.47-6L51.47-6L50.34-6Q49.88-7.78 47.77-7.83L47.77-7.83Q45.09-7.64 44.95-4.31L44.95-4.31Q44.95-0.75 47.81-0.75L47.81-0.75Q48.84-0.75 49.59-1.31L49.59-1.31Q50.53-2.06 50.48-3.61L50.48-3.61ZM57.56-1.03L62.86-1.03L62.86 0L56.11 0L56.11-0.94L61.36-7.59L56.48-7.59L56.48-8.58L62.86-8.58L62.86-7.59L57.56-1.03ZM65.16-5.06L69.66-5.06L69.66-8.58L70.83-8.58L70.83 0L69.66 0L69.66-3.98L65.16-3.98L65.16 0L63.98 0L63.98-8.58L65.16-8.58L65.16-5.06ZM73.92-1.03L79.08-1.03L79.08 0L72.75 0L72.75-8.58L78.98-8.58L78.98-7.59L73.92-7.59L73.92-4.92L78.61-4.92L78.61-3.89L73.92-3.89L73.92-1.03ZM81.98-8.58L86.30-1.64L86.30-8.58L87.42-8.58L87.42 0L86.11 0L81.75-6.94L81.70-6.94L81.70 0L80.58 0L80.58-8.58L81.98-8.58ZM95.63-3.61L93-3.61L93-4.59L96.75-4.59L96.75 0L96 0L95.72-1.08Q94.73 0.09 92.91 0.14L92.91 0.14Q91.17 0.14 90.23-0.75L90.23-0.75Q88.83-2.06 88.88-4.36L88.88-4.36Q89.20-8.63 92.95-8.81L92.95-8.81Q96.14-8.63 96.61-6L96.61-6L95.48-6Q95.02-7.78 92.91-7.83L92.91-7.83Q90.23-7.64 90.09-4.31L90.09-4.31Q90.09-0.75 92.95-0.75L92.95-0.75Q93.98-0.75 94.73-1.31L94.73-1.31Q95.67-2.06 95.63-3.61L95.63-3.61ZM105.47-8.58L102.23-3.47L102.23 0L101.06 0L101.06-3.47L97.83-8.58L99.19-8.58L101.63-4.45L104.11-8.58L105.47-8.58ZM113.30-4.27L113.30-4.27Q113.11-7.64 110.30-7.83L110.30-7.83Q107.44-7.69 107.30-4.27L107.30-4.27Q107.44-0.94 110.30-0.80L110.30-0.80Q113.11-0.98 113.30-4.27ZM114.47-4.27L114.47-4.27Q114.19 0 110.30 0.14L110.30 0.14Q106.36 0 106.08-4.27L106.08-4.27Q106.31-8.72 110.30-8.81L110.30-8.81Q114.19-8.67 114.47-4.27ZM121.50-3.19L121.50-8.58L122.67-8.58L122.67-3.05Q122.53 0.05 119.16 0.14L119.16 0.14Q116.02 0.05 115.88-2.86L115.88-2.86L115.88-8.58L117.05-8.58L117.05-3.19Q117.09-0.84 119.20-0.80L119.20-0.80Q121.50-0.84 121.50-3.19L121.50-3.19Z" transform="translate(-0.890625, 8.8125)"></path></g></g></g></g></g><defs v-gra="od"></defs></svg>